<svg width="1239" height="735" viewBox="0 0 1239 735" fill="none" xmlns="http://www.w3.org/2000/svg">
<g opacity="0.2" filter="url(#filter0_i_24_160)">
<path d="M82.4809 719.512C83.8197 719.289 84.7432 717.899 84.5436 716.406C84.3439 714.914 83.0968 713.884 81.7579 714.107C80.4191 714.33 79.4956 715.72 79.6952 717.212C79.8949 718.705 81.1421 719.734 82.4809 719.512Z" fill="#60E6C5"/>
<path d="M938.481 629.585C939.82 629.363 940.744 627.972 940.544 626.48C940.344 624.987 939.097 623.958 937.758 624.181C936.42 624.403 935.496 625.793 935.696 627.286C935.895 628.778 937.143 629.808 938.481 629.585Z" fill="#60E6C5"/>
<path d="M1190.48 421.493C1191.82 421.27 1192.74 419.88 1192.54 418.387C1192.34 416.895 1191.1 415.865 1189.76 416.088C1188.42 416.31 1187.5 417.701 1187.7 419.193C1187.9 420.686 1189.14 421.715 1190.48 421.493Z" fill="#60E6C5"/>
<path d="M1089.15 163.606C1090.49 163.383 1091.41 161.993 1091.21 160.5C1091.01 159.008 1089.76 157.978 1088.43 158.201C1087.09 158.423 1086.16 159.814 1086.36 161.306C1086.56 162.799 1087.81 163.828 1089.15 163.606Z" fill="#60E6C5"/>
<path d="M749.148 584.994C750.487 584.772 751.41 583.381 751.211 581.889C751.011 580.396 749.764 579.367 748.425 579.589C747.086 579.812 746.163 581.202 746.362 582.695C746.562 584.187 747.809 585.217 749.148 584.994Z" fill="#60E6C5"/>
<path d="M252.48 119.757C253.819 119.535 254.742 118.144 254.543 116.652C254.343 115.159 253.096 114.13 251.757 114.353C250.418 114.575 249.495 115.965 249.694 117.458C249.894 118.95 251.141 119.98 252.48 119.757Z" fill="#60E6C5"/>
<path d="M117.147 457.165C118.486 456.942 119.409 455.552 119.21 454.059C119.01 452.567 117.763 451.537 116.424 451.76C115.085 451.982 114.162 453.373 114.361 454.865C114.561 456.358 115.808 457.387 117.147 457.165Z" fill="#60E6C5"/>
<path d="M717.148 402.17C718.487 401.947 719.41 400.557 719.211 399.064C719.011 397.572 717.764 396.542 716.425 396.765C715.086 396.987 714.163 398.378 714.362 399.87C714.562 401.363 715.809 402.392 717.148 402.17Z" fill="#60E6C5"/>
<path d="M93.8134 95.9747C95.1522 95.7521 96.0757 94.3618 95.8761 92.8692C95.6765 91.3767 94.4293 90.3472 93.0904 90.5698C91.7516 90.7924 90.8281 92.1827 91.0277 93.6752C91.2274 95.1677 92.4746 96.1972 93.8134 95.9747Z" fill="#60E6C5"/>
<path d="M1069.81 717.282C1071.15 717.059 1072.08 715.669 1071.88 714.176C1071.68 712.684 1070.43 711.654 1069.09 711.877C1067.75 712.099 1066.83 713.49 1067.03 714.982C1067.23 716.475 1068.48 717.504 1069.81 717.282Z" fill="#60E6C5"/>
<path d="M355.147 733.632C356.486 733.41 357.409 732.02 357.21 730.527C357.01 729.035 355.763 728.005 354.424 728.228C353.085 728.45 352.162 729.841 352.361 731.333C352.561 732.826 353.808 733.855 355.147 733.632Z" fill="#60E6C5"/>
<path d="M1060.48 564.928C1061.82 564.705 1062.74 563.315 1062.54 561.823C1062.34 560.33 1061.1 559.3 1059.76 559.523C1058.42 559.746 1057.5 561.136 1057.7 562.629C1057.9 564.121 1059.14 565.151 1060.48 564.928Z" fill="#60E6C5"/>
<path d="M3.72328 701.016C5.21249 700.768 6.23972 699.222 6.01765 697.562C5.79558 695.901 4.40832 694.756 2.91911 695.004C1.4299 695.251 0.402676 696.798 0.624744 698.458C0.846812 700.118 2.23407 701.263 3.72328 701.016Z" fill="#60E6C5"/>
<path d="M1236.17 369.524C1237.66 369.276 1238.69 367.729 1238.47 366.069C1238.24 364.409 1236.86 363.264 1235.37 363.512C1233.88 363.759 1232.85 365.306 1233.07 366.966C1233.3 368.626 1234.68 369.771 1236.17 369.524Z" fill="#60E6C5"/>
<path d="M1123.46 82.6718C1124.95 82.4243 1125.97 80.8778 1125.75 79.2176C1125.53 77.5575 1124.14 76.4123 1122.65 76.6599C1121.16 76.9075 1120.14 78.454 1120.36 80.1141C1120.58 81.7743 1121.97 82.9194 1123.46 82.6718Z" fill="#60E6C5"/>
<path d="M745.269 551.389C746.758 551.142 747.785 549.595 747.563 547.935C747.341 546.275 745.954 545.13 744.465 545.377C742.975 545.625 741.948 547.171 742.17 548.831C742.392 550.492 743.78 551.637 745.269 551.389Z" fill="#00FFC0"/>
<path d="M192.816 33.8988C194.306 33.6512 195.333 32.1047 195.111 30.4446C194.889 28.7844 193.501 27.6393 192.012 27.8868C190.523 28.1344 189.496 29.6809 189.718 31.341C189.94 33.0012 191.327 34.1463 192.816 33.8988Z" fill="#60E6C5"/>
<path d="M42.2826 409.202C43.7718 408.955 44.7991 407.408 44.577 405.748C44.3549 404.088 42.9676 402.943 41.4784 403.191C39.9892 403.438 38.962 404.985 39.1841 406.645C39.4061 408.305 40.7934 409.45 42.2826 409.202Z" fill="#60E6C5"/>
<path d="M709.675 348.03C711.164 347.783 712.191 346.236 711.969 344.576C711.747 342.916 710.36 341.771 708.871 342.018C707.381 342.266 706.354 343.812 706.576 345.473C706.798 347.133 708.186 348.278 709.675 348.03Z" fill="#60E6C5"/>
<path d="M16.3285 7.44479C17.8177 7.19723 18.845 5.65072 18.6229 3.99058C18.4008 2.33043 17.0135 1.1853 15.5243 1.43286C14.0351 1.68042 13.0079 3.22692 13.23 4.88706C13.452 6.54721 14.8393 7.69235 16.3285 7.44479Z" fill="#60E6C5"/>
<path d="M1101.95 698.535C1103.44 698.287 1104.47 696.741 1104.25 695.081C1104.02 693.421 1102.64 692.275 1101.15 692.523C1099.66 692.771 1098.63 694.317 1098.85 695.977C1099.08 697.637 1100.46 698.782 1101.95 698.535Z" fill="#60E6C5"/>
<path d="M307.014 716.722C308.504 716.475 309.531 714.928 309.309 713.268C309.087 711.608 307.699 710.463 306.21 710.71C304.721 710.958 303.694 712.504 303.916 714.165C304.138 715.825 305.525 716.97 307.014 716.722Z" fill="#60E6C5"/>
<path d="M1091.57 529.069C1093.06 528.822 1094.09 527.275 1093.86 525.615C1093.64 523.955 1092.26 522.81 1090.77 523.057C1089.28 523.305 1088.25 524.851 1088.47 526.512C1088.69 528.172 1090.08 529.317 1091.57 529.069Z" fill="#60E6C5"/>
</g>
<defs>
<filter id="filter0_i_24_160" x="0.594482" y="1.39917" width="1237.9" height="732.264" filterUnits="userSpaceOnUse" color-interpolation-filters="sRGB">
<feFlood flood-opacity="0" result="BackgroundImageFix"/>
<feBlend mode="normal" in="SourceGraphic" in2="BackgroundImageFix" result="shape"/>
<feColorMatrix in="SourceAlpha" type="matrix" values="0 0 0 0 0 0 0 0 0 0 0 0 0 0 0 0 0 0 127 0" result="hardAlpha"/>
<feOffset/>
<feGaussianBlur stdDeviation="11.625"/>
<feComposite in2="hardAlpha" operator="arithmetic" k2="-1" k3="1"/>
<feColorMatrix type="matrix" values="0 0 0 0 0.21375 0 0 0 0 0.895464 0 0 0 0 0.93625 0 0 0 1 0"/>
<feBlend mode="normal" in2="shape" result="effect1_innerShadow_24_160"/>
</filter>
</defs>
</svg>
