<svg width="92" height="111" viewBox="0 0 92 111" fill="none" xmlns="http://www.w3.org/2000/svg">
<g filter="url(#filter0_b_26_51)">
<path d="M1 29L45 7L88 29V87.5L45 110L1 87.5V29Z" stroke="#32B4AD"/>
</g>
<g filter="url(#filter1_b_26_51)">
<path d="M4 23L48 1L91 23V81.5L48 104L4 81.5V23Z" fill="#01271E"/>
<path d="M4 23L48 1L91 23V81.5L48 104L4 81.5V23Z" stroke="#32B4AD"/>
</g>
<g clip-path="url(#clip0_26_51)">
<path d="M75.5237 67.8402L56.1444 52.5809C55.5919 52.1461 54.7758 52.5395 54.7758 53.2452V63.0813H41.1268C40.6598 63.0813 40.2813 63.4598 40.2813 63.9268C40.2813 64.3939 40.6598 64.7724 41.1268 64.7724H55.6212C56.0883 64.7724 56.4668 64.3939 56.4668 63.9268V54.9871L73.6133 68.4884L56.3142 81.4627V72.93C56.3142 72.4629 55.9357 72.0844 55.4686 72.0844H35.9367C28.3341 72.0844 23.7394 67.5795 22.2962 60.2326C22.7988 60.6601 23.4086 61.1243 24.1318 61.5872C29.3259 64.9114 34.7288 64.7725 37.8013 64.7725C38.2684 64.7725 38.6469 64.394 38.6469 63.9269C38.6469 63.4599 38.2684 63.0814 37.8013 63.0814C35.4037 63.0814 30.0838 63.3493 25.1198 60.2116C22.8736 58.7917 21.8364 57.3504 21.8278 57.3384C21.3486 56.6541 20.2672 57.0109 20.2899 57.846C20.2942 58.008 20.4193 61.8563 22.3827 65.7568C24.2242 69.4148 28.0703 73.7755 35.9365 73.7755H54.623V83.1537C54.623 83.8496 55.4197 84.247 55.9758 83.8301L75.5077 69.1811C75.7177 69.0237 75.8428 68.7773 75.8458 68.5147C75.849 68.2518 75.73 68.0027 75.5237 67.8402Z" fill="#32B4AD"/>
<path d="M71.6169 44.2434C69.7754 40.5854 65.9292 36.2247 58.0629 36.2247H55.8939C55.4269 36.2247 55.0484 36.6032 55.0484 37.0703C55.0484 37.5373 55.4269 37.9158 55.8939 37.9158H58.0629C65.6659 37.9158 70.2603 42.421 71.7035 49.7676C67.9827 46.6033 63.0029 45.2278 58.0629 45.2278H38.3784C37.9114 45.2278 37.5329 45.6063 37.5329 46.0734V55.0131L20.3866 41.5118L37.6856 28.5375V37.0703C37.6856 37.5373 38.0641 37.9158 38.5311 37.9158H52.6814C53.1485 37.9158 53.5269 37.5373 53.5269 37.0703C53.5269 36.6032 53.1485 36.2247 52.6814 36.2247H39.3765V26.8465C39.3765 26.1515 38.5805 25.7526 38.0237 26.1701L18.4919 40.8192C18.048 41.1521 18.0403 41.8165 18.4762 42.1599L37.8554 57.419C38.4095 57.8553 39.2239 57.4588 39.2239 56.7549V46.9188H58.0629C63.2507 46.9188 66.8088 48.4796 68.8799 49.7887C71.126 51.2085 72.1632 52.6498 72.1718 52.6618C72.6507 53.346 73.7324 52.9893 73.7098 52.1542C73.7054 51.9922 73.5803 48.1439 71.6169 44.2434Z" fill="#32B4AD"/>
</g>
<defs>
<filter id="filter0_b_26_51" x="-3.5" y="2.4397" width="96" height="112.123" filterUnits="userSpaceOnUse" color-interpolation-filters="sRGB">
<feFlood flood-opacity="0" result="BackgroundImageFix"/>
<feGaussianBlur in="BackgroundImageFix" stdDeviation="2"/>
<feComposite in2="SourceAlpha" operator="in" result="effect1_backgroundBlur_26_51"/>
<feBlend mode="normal" in="SourceGraphic" in2="effect1_backgroundBlur_26_51" result="shape"/>
</filter>
<filter id="filter1_b_26_51" x="-0.5" y="-3.5603" width="96" height="112.123" filterUnits="userSpaceOnUse" color-interpolation-filters="sRGB">
<feFlood flood-opacity="0" result="BackgroundImageFix"/>
<feGaussianBlur in="BackgroundImageFix" stdDeviation="2"/>
<feComposite in2="SourceAlpha" operator="in" result="effect1_backgroundBlur_26_51"/>
<feBlend mode="normal" in="SourceGraphic" in2="effect1_backgroundBlur_26_51" result="shape"/>
</filter>
<clipPath id="clip0_26_51">
<rect width="58" height="58" fill="white" transform="translate(18 26)"/>
</clipPath>
</defs>
</svg>
