<svg width="83" height="83" viewBox="0 0 83 83" fill="none" xmlns="http://www.w3.org/2000/svg">
<path d="M18.3975 54.9952C18.3365 54.9952 18.2743 54.9914 18.2107 54.9823C15.2474 54.5543 12.4046 53.6244 9.7642 52.2173C9.13262 51.8802 8.8927 51.0942 9.22989 50.4614C9.56837 49.8311 10.3504 49.5912 10.9859 49.9271C13.3591 51.1941 15.9153 52.0293 18.5804 52.4132C19.2897 52.5156 19.7813 53.1731 19.6801 53.8825C19.5867 54.5297 19.0317 54.9952 18.3975 54.9952Z" fill="#60E6C5"/>
<path d="M64.6026 54.9953C63.9684 54.9953 63.4133 54.5297 63.32 53.8839C63.2188 53.1745 63.7103 52.517 64.4197 52.4145C67.0861 52.0306 69.6409 51.1954 72.0142 49.9284C72.651 49.5925 73.4317 49.8324 73.7702 50.4627C74.1074 51.0943 73.8674 51.8815 73.2359 52.2187C70.5954 53.6258 67.7527 54.5557 64.7893 54.9836C64.7258 54.9914 64.6635 54.9953 64.6026 54.9953Z" fill="#60E6C5"/>
<path d="M51.0373 43.3532C50.7934 43.3532 50.5483 43.2845 50.3305 43.1431C49.73 42.7515 49.5601 41.9487 49.9518 41.3483C51.7894 38.5301 54.8942 36.8468 58.2583 36.8468C58.9754 36.8468 59.5551 37.4265 59.5551 38.1437C59.5551 38.8608 58.9754 39.4406 58.2583 39.4406C55.7734 39.4406 53.4806 40.683 52.1253 42.7644C51.8776 43.1457 51.4626 43.3532 51.0373 43.3532Z" fill="#60E6C5"/>
<path d="M61.1335 39.4406C56.536 39.4406 52.6532 35.5578 52.6532 30.9616C52.6532 26.3655 56.536 22.4827 61.1335 22.4827C65.7296 22.4827 69.6124 26.3655 69.6124 30.9616C69.6124 35.5578 65.7296 39.4406 61.1335 39.4406ZM61.1335 25.0764C57.9432 25.0764 55.2469 27.7713 55.2469 30.9616C55.2469 34.1519 57.9432 36.8469 61.1335 36.8469C64.3238 36.8469 67.0187 34.1519 67.0187 30.9616C67.0187 27.7713 64.3238 25.0764 61.1335 25.0764Z" fill="#60E6C5"/>
<path d="M72.625 48.0609C71.9078 48.0609 71.3281 47.4812 71.3281 46.764C71.3281 42.7269 68.0432 39.4419 64.006 39.4419C63.2888 39.4419 62.7091 38.8622 62.7091 38.145C62.7091 37.4278 63.2888 36.8481 64.006 36.8481C69.4736 36.8481 73.9219 41.2977 73.9219 46.764C73.9219 47.4799 73.3422 48.0609 72.625 48.0609Z" fill="#60E6C5"/>
<path d="M64.006 39.4406H58.2595C57.5423 39.4406 56.9626 38.8608 56.9626 38.1437C56.9626 37.4265 57.5423 36.8468 58.2595 36.8468H64.006C64.7231 36.8468 65.3028 37.4265 65.3028 38.1437C65.3028 38.8608 64.7218 39.4406 64.006 39.4406Z" fill="#60E6C5"/>
<path d="M72.625 52.3704C71.9078 52.3704 71.3281 51.7907 71.3281 51.0736V46.764C71.3281 46.0469 71.9078 45.4672 72.625 45.4672C73.3422 45.4672 73.9219 46.0469 73.9219 46.764V51.0736C73.9219 51.7907 73.3422 52.3704 72.625 52.3704Z" fill="#60E6C5"/>
<path d="M26.1775 53.3274C25.4603 53.3274 24.8806 52.7477 24.8806 52.0305C24.8806 44.9781 30.618 39.2421 37.6691 39.2421C38.3863 39.2421 38.966 39.8218 38.966 40.5389C38.966 41.2561 38.3863 41.8358 37.6691 41.8358C32.0471 41.8358 27.4744 46.4086 27.4744 52.0305C27.4744 52.7477 26.8934 53.3274 26.1775 53.3274Z" fill="#60E6C5"/>
<path d="M45.331 41.8358H37.6691C36.9519 41.8358 36.3722 41.2561 36.3722 40.5389C36.3722 39.8218 36.9519 39.2421 37.6691 39.2421H45.331C46.0482 39.2421 46.6279 39.8218 46.6279 40.5389C46.6279 41.2561 46.0482 41.8358 45.331 41.8358Z" fill="#60E6C5"/>
<path d="M31.9628 43.3532C31.5387 43.3532 31.1237 43.1457 30.8747 42.7644C29.5182 40.6843 27.2266 39.4406 24.7418 39.4406C24.0246 39.4406 23.4449 38.8608 23.4449 38.1437C23.4449 37.4265 24.0246 36.8468 24.7418 36.8468C28.1072 36.8468 31.2106 38.5301 33.0483 41.3483C33.44 41.9487 33.2701 42.7515 32.6696 43.1431C32.4504 43.2845 32.2053 43.3532 31.9628 43.3532Z" fill="#60E6C5"/>
<path d="M26.1775 59.074C25.4603 59.074 24.8806 58.4943 24.8806 57.7771V52.0306C24.8806 51.3135 25.4603 50.7338 26.1775 50.7338C26.8947 50.7338 27.4744 51.3135 27.4744 52.0306V57.7771C27.4744 58.4943 26.8934 59.074 26.1775 59.074Z" fill="#60E6C5"/>
<path d="M41.5 41.8359C35.6057 41.8359 30.6257 36.8559 30.6257 30.9616C30.6257 25.0673 35.6057 20.0873 41.5 20.0873C47.3943 20.0873 52.3743 25.0673 52.3743 30.9616C52.3743 36.8559 47.3943 41.8359 41.5 41.8359ZM41.5 22.681C37.0115 22.681 33.2195 26.4731 33.2195 30.9616C33.2195 35.4501 37.0115 39.2421 41.5 39.2421C45.9885 39.2421 49.7806 35.4501 49.7806 30.9616C49.7806 26.4731 45.9885 22.681 41.5 22.681Z" fill="#60E6C5"/>
<path d="M56.8227 53.3274C56.1055 53.3274 55.5258 52.7477 55.5258 52.0305C55.5258 46.4086 50.953 41.8358 45.3311 41.8358C44.6139 41.8358 44.0342 41.2561 44.0342 40.5389C44.0342 39.8218 44.6139 39.2421 45.3311 39.2421C52.3835 39.2421 58.1195 44.9794 58.1195 52.0305C58.1195 52.7477 57.5398 53.3274 56.8227 53.3274Z" fill="#60E6C5"/>
<path d="M56.8226 59.074C56.1055 59.074 55.5258 58.4943 55.5258 57.7771V52.0306C55.5258 51.3135 56.1055 50.7338 56.8226 50.7338C57.5398 50.7338 58.1195 51.3135 58.1195 52.0306V57.7771C58.1195 58.4943 57.5398 59.074 56.8226 59.074Z" fill="#60E6C5"/>
<path d="M41.5 62.9127C36.0272 62.9127 30.5556 61.5821 25.5666 58.9222C24.935 58.5837 24.6951 57.7991 25.0323 57.1662C25.3707 56.5359 26.1515 56.296 26.7882 56.6319C36.0012 61.5458 47.0013 61.5458 56.213 56.6319C56.8485 56.296 57.6318 56.5359 57.969 57.1662C58.3062 57.7978 58.0663 58.5837 57.4347 58.9222C52.4443 61.5808 46.9728 62.9127 41.5 62.9127Z" fill="#60E6C5"/>
<path d="M21.8667 39.4406C17.2705 39.4406 13.3877 35.5578 13.3877 30.9616C13.3877 26.3655 17.2705 22.4827 21.8667 22.4827C26.4628 22.4827 30.3456 26.3655 30.3456 30.9616C30.3456 35.5578 26.4628 39.4406 21.8667 39.4406ZM21.8667 25.0764C18.6764 25.0764 15.9814 27.7713 15.9814 30.9616C15.9814 34.1519 18.6764 36.8469 21.8667 36.8469C25.057 36.8469 27.7519 34.1519 27.7519 30.9616C27.7519 27.7713 25.057 25.0764 21.8667 25.0764Z" fill="#60E6C5"/>
<path d="M10.375 48.0609C9.65783 48.0609 9.07812 47.4812 9.07812 46.764C9.07812 41.2964 13.5277 36.8481 18.994 36.8481C19.7112 36.8481 20.2909 37.4278 20.2909 38.145C20.2909 38.8622 19.7112 39.4419 18.994 39.4419C14.9569 39.4406 11.6719 42.7256 11.6719 46.764C11.6719 47.4799 11.0922 48.0609 10.375 48.0609Z" fill="#60E6C5"/>
<path d="M24.7405 39.4406H18.994C18.2768 39.4406 17.6971 38.8608 17.6971 38.1437C17.6971 37.4265 18.2768 36.8468 18.994 36.8468H24.7405C25.4576 36.8468 26.0373 37.4265 26.0373 38.1437C26.0373 38.8608 25.4576 39.4406 24.7405 39.4406Z" fill="#60E6C5"/>
<path d="M10.375 52.3704C9.65783 52.3704 9.07812 51.7907 9.07812 51.0736V46.764C9.07812 46.0469 9.65783 45.4672 10.375 45.4672C11.0922 45.4672 11.6719 46.0469 11.6719 46.764V51.0736C11.6719 51.7907 11.0922 52.3704 10.375 52.3704Z" fill="#60E6C5"/>
</svg>
